<?xml version="1.0" encoding="utf-8"?>
<!-- Generator: Adobe Illustrator 21.0.0, SVG Export Plug-In . SVG Version: 6.00 Build 0)  -->
<svg version="1.1" id="Layer_1" xmlns="http://www.w3.org/2000/svg" xmlns:xlink="http://www.w3.org/1999/xlink" x="0px" y="0px"
	 viewBox="0 0 201.8 66.5" style="enable-background:new 0 0 201.8 66.5;" xml:space="preserve">
<style type="text/css">
	.st0{fill:#55308B;}
</style>
<g>
	<path class="st0" d="M129.6,0c3.7,0,5.3,1.8,4.7,5.4l-10.2,61.1h-11.7l8.9-53.7c0.1-0.7-0.3-1.2-1-1.2H88.8c-0.9,0-1.3,0.4-1.5,1.2
		l-8.9,53.7H66.8L76.9,5.4C77.5,1.8,79.7,0,83.3,0H129.6z"/>
	<path class="st0" d="M197,0c3.7,0,5.3,1.8,4.7,5.4l-10.2,61.1h-11.7l8.9-53.7c0.1-0.7-0.3-1.2-1-1.2h-31.5c-0.9,0-1.3,0.4-1.5,1.2
		l-8.9,53.7h-11.6l10.2-61.1c0.6-3.6,2.7-5.4,6.4-5.4H197z"/>
	<g>
		<polygon class="st0" points="18,28.2 22.7,0 11.1,0 0,66.5 11.6,66.5 11.9,64.6 16.2,38.7 		"/>
		<path class="st0" d="M52.4,45.6c-0.7-1.9-1.3-3.6-2-5C49.7,39.2,49,38,48.1,37c-0.9-1-1.8-1.9-2.9-2.6c-1.1-0.7-2.4-1.2-3.9-1.6
			c3-1.2,5.4-2.8,7.5-4.7c2-2,4.1-4.4,6.1-7.4L68.8,0h-9.6c-1.8,0-3.6,1-4.7,2.6L42.8,19.9c-1.2,1.8-2.3,3.3-3.3,4.4
			c-1,1.1-2.1,1.9-3.4,2.5c-1.3,0.6-2.8,1-4.7,1.1c-1.8,0.2-4.2,0.2-7,0.2h-0.6l-1.8,10.5h0.6c3.2,0,5.7,0.1,7.6,0.2
			c1.9,0.2,3.5,0.5,4.7,1.1c1.2,0.6,2.2,1.4,2.8,2.5c0.7,1.1,1.3,2.5,2,4.2l6,17.1c0.6,1.6,2,2.6,3.8,2.6h10.1L52.4,45.6z"/>
	</g>
</g>
</svg>
